<?xml version="1.0" standalone="no"?>
<!DOCTYPE svg PUBLIC "-//W3C//DTD SVG 20010904//EN"
 "http://www.w3.org/TR/2001/REC-SVG-20010904/DTD/svg10.dtd">
<svg version="1.0" xmlns="http://www.w3.org/2000/svg"
 width="1024.000000pt" height="769.000000pt" viewBox="0 0 1024.000000 769.000000"
 preserveAspectRatio="xMidYMid meet">

<g transform="translate(0.000000,769.000000) scale(0.100000,-0.100000)"
fill="#000000" stroke="none">
<path d="M5105 5668 c-3 -7 -4 -632 -3 -1388 3 -1214 5 -1375 18 -1375 13 0
15 160 15 1384 0 1098 -3 1385 -12 1388 -7 3 -15 -1 -18 -9z"/>
<path d="M4870 4285 l0 -1386 58 3 57 3 3 1383 2 1382 -60 0 -60 0 0 -1385z"/>
<path d="M5252 4288 l3 -1383 58 -3 57 -3 0 1386 0 1385 -60 0 -60 0 2 -1382z"/>
<path d="M4591 5128 c-11 -18 -67 -100 -123 -183 -57 -82 -144 -208 -193 -280
-49 -71 -127 -186 -173 -255 -47 -69 -90 -130 -96 -137 -9 -10 -75 30 -290
172 l-278 185 -224 0 c-216 0 -224 -1 -224 -20 0 -19 8 -20 178 -22 l177 -3 3
-82 c2 -46 -1 -83 -6 -83 -5 0 -21 9 -35 20 -23 18 -40 20 -171 20 l-146 0 -1
-362 c0 -200 -2 -540 -5 -755 -3 -216 -1 -393 3 -393 4 0 24 24 43 53 19 28
77 111 127 183 l93 132 0 540 c0 448 2 541 14 545 7 3 30 -8 50 -25 l36 -29 0
-525 0 -525 -37 -57 c-21 -32 -42 -65 -48 -74 -5 -9 -59 -90 -119 -180 -60
-90 -119 -179 -132 -199 -13 -19 -24 -38 -24 -41 0 -8 106 -176 134 -213 l24
-30 62 54 62 54 146 -6 c81 -3 157 -2 169 1 12 4 41 36 65 72 50 74 171 251
202 295 12 17 26 37 31 47 6 9 81 121 168 250 87 128 239 352 337 498 98 146
182 270 187 275 4 6 47 69 96 141 l87 131 0 422 0 421 -74 0 c-73 0 -74 -1
-95 -32z m-1115 -595 c231 -150 452 -293 468 -305 19 -14 19 -16 -12 -69 -59
-104 -36 -109 -300 67 l-232 155 0 94 c0 52 4 95 9 95 5 0 35 -17 67 -37z
m163 -373 c105 -69 191 -128 191 -132 0 -5 -328 -499 -389 -585 -40 -56 -41
-42 -41 422 l0 446 24 -13 c14 -7 110 -69 215 -138z"/>
<path d="M5480 4733 l0 -417 115 -171 c63 -93 208 -308 322 -477 664 -981 713
-1052 736 -1061 12 -5 88 -5 169 -1 l147 6 61 -53 62 -53 19 24 c11 14 32 45
46 70 15 25 42 66 60 92 18 26 33 52 33 56 0 5 -18 34 -40 65 -22 30 -40 58
-40 62 0 4 -29 50 -65 102 -36 52 -65 96 -65 98 0 2 -34 54 -75 116 l-75 112
0 526 0 526 35 23 c70 45 65 80 65 -518 l0 -541 38 -52 c21 -29 65 -95 97
-147 65 -105 124 -186 132 -183 8 5 16 1364 8 1446 l-7 77 -146 0 c-129 0
-151 -2 -180 -20 -18 -11 -35 -20 -38 -20 -2 0 -4 37 -2 83 l3 82 188 3 c179
2 187 3 187 22 0 19 -8 20 -234 20 l-233 0 -173 -115 c-94 -63 -173 -115 -175
-115 -2 0 -39 -24 -82 -54 -43 -29 -90 -61 -105 -70 l-26 -17 -67 98 c-36 54
-116 170 -176 258 -60 88 -135 198 -166 245 -31 47 -59 87 -62 90 -3 3 -35 49
-71 102 l-65 98 -77 0 -78 0 0 -417z m1358 -260 c-3 -93 -4 -97 -30 -112 -15
-9 -118 -78 -229 -153 -178 -120 -205 -136 -219 -123 -24 22 -82 123 -76 133
3 5 83 59 178 120 95 61 214 138 263 171 50 33 96 60 103 61 10 0 12 -23 10
-97z m2 -618 c0 -273 -4 -445 -9 -445 -6 0 -50 60 -99 133 -208 308 -272 403
-282 414 -5 7 -10 16 -10 21 0 5 -7 15 -15 22 -8 7 -15 18 -15 24 0 7 71 56
158 110 86 54 175 111 197 126 33 22 52 33 73 39 1 1 2 -199 2 -444z"/>
<path d="M3305 2469 c-6 -16 14 -84 100 -349 77 -236 82 -248 100 -220 8 13
65 206 72 243 3 15 9 27 14 27 4 0 27 -61 51 -135 24 -74 48 -137 55 -139 8
-3 26 41 53 127 23 73 50 157 60 187 44 128 79 254 74 262 -3 5 -10 8 -16 6
-9 -3 -92 -245 -143 -416 -10 -34 -22 -62 -26 -62 -4 0 -25 54 -47 120 l-40
119 28 98 c16 54 32 106 35 116 5 13 2 17 -12 17 -16 0 -24 -15 -42 -75 -21
-70 -41 -98 -41 -57 0 27 -31 115 -46 131 -28 30 -26 -17 5 -113 36 -113 36
-110 12 -184 -10 -31 -26 -83 -35 -114 -10 -32 -21 -60 -25 -62 -4 -3 -24 50
-45 117 -70 219 -116 351 -126 361 -6 6 -11 4 -15 -5z"/>
<path d="M4185 2471 c-6 -11 169 -559 184 -574 14 -14 28 15 54 108 14 50 50
173 81 273 52 172 58 202 36 202 -8 0 -52 -127 -110 -320 -53 -178 -52 -174
-60 -159 -15 26 -122 360 -134 415 -8 36 -40 71 -51 55z"/>
<path d="M4642 2468 c-9 -9 -12 -86 -12 -285 0 -259 1 -273 19 -283 11 -5 70
-10 131 -10 101 0 111 2 108 17 -3 15 -17 18 -107 20 -57 1 -107 5 -113 11 -5
5 -8 44 -6 88 l3 79 90 0 c71 0 90 3 90 14 0 11 -15 14 -73 12 -118 -4 -112
-13 -112 153 0 103 4 146 13 153 6 6 61 10 122 10 96 -1 110 1 113 16 3 15
-10 17 -125 17 -87 0 -133 -4 -141 -12z"/>
<path d="M4997 2473 c-4 -3 -7 -131 -7 -283 0 -201 3 -279 12 -288 15 -15 84
-16 129 -1 103 33 150 87 157 180 5 72 -11 121 -51 155 -26 22 -32 35 -39 91
-8 72 -38 119 -91 141 -31 13 -99 16 -110 5z m100 -40 c43 -20 73 -66 73 -112
l0 -34 -52 7 c-29 3 -63 6 -75 6 -22 0 -23 4 -23 68 0 38 3 72 7 75 11 11 33
8 70 -10z m35 -178 c54 -16 97 -44 98 -62 0 -7 4 -13 8 -13 10 0 32 -60 32
-87 0 -27 -24 -83 -47 -109 -30 -35 -81 -55 -141 -57 l-57 -2 -3 150 c-1 83 0
160 3 173 7 27 37 29 107 7z"/>
<path d="M5392 2472 c-16 -11 -13 -577 3 -577 6 0 11 46 13 113 2 89 6 112 17
112 8 0 65 -52 127 -115 62 -63 116 -115 120 -115 22 0 3 42 -37 79 -25 23
-45 47 -45 53 0 5 13 27 28 47 15 20 33 47 39 61 40 93 41 107 12 186 -26 68
-85 127 -148 149 -48 16 -108 19 -129 7z m109 -33 c104 -32 178 -159 149 -258
-11 -39 -76 -121 -95 -121 -8 0 -43 30 -79 66 l-66 65 0 124 c0 144 4 150 91
124z"/>
<path d="M5772 2191 c2 -186 7 -291 13 -291 16 0 13 572 -3 578 -10 3 -12 -56
-10 -287z"/>
<path d="M5910 2192 c0 -173 4 -293 9 -297 13 -8 97 14 141 36 45 22 92 72
122 129 33 64 33 185 0 252 -47 95 -119 148 -224 163 l-48 7 0 -290z m117 228
c54 -25 69 -38 103 -91 45 -70 55 -109 47 -182 -8 -67 -51 -134 -110 -174 -50
-34 -113 -52 -127 -37 -13 14 1 514 14 514 6 0 39 -13 73 -30z"/>
<path d="M6515 2475 c-5 -2 -29 -9 -52 -15 -57 -14 -134 -86 -164 -152 -18
-41 -23 -70 -23 -128 0 -84 22 -139 77 -195 37 -36 124 -81 180 -91 l37 -6 0
120 c0 69 -4 122 -10 124 -21 7 -190 -4 -190 -13 0 -5 15 -9 33 -9 17 0 56 -3
85 -6 l52 -7 0 -88 0 -88 -47 16 c-113 38 -174 110 -189 222 -14 105 48 212
152 262 34 16 74 29 88 29 16 0 26 6 26 15 0 14 -29 19 -55 10z"/>
<path d="M6664 2469 c-11 -19 -4 -552 8 -566 16 -20 221 -18 238 2 15 18 21
16 -102 20 -53 1 -101 6 -107 9 -6 4 -11 40 -11 87 0 85 -2 82 63 79 51 -2
117 10 117 21 0 5 -32 9 -71 9 -111 0 -109 -3 -109 159 0 103 3 141 13 150 9
7 50 9 114 7 100 -4 132 2 119 23 -10 15 -262 15 -272 0z"/>
<path d="M3982 2363 c-17 -60 -55 -186 -83 -281 -37 -124 -48 -177 -41 -184 8
-8 14 -4 20 13 6 13 15 36 21 52 l11 27 124 0 125 0 13 -42 c13 -45 27 -63 41
-49 8 8 -22 113 -126 439 -53 169 -62 171 -105 25z m93 -110 c63 -197 65 -203
65 -218 0 -12 -19 -15 -104 -15 -58 0 -107 4 -110 8 -2 4 4 35 14 67 10 33 33
108 51 168 18 59 36 107 40 107 3 0 23 -53 44 -117z"/>
</g>
</svg>
