<svg xmlns="http://www.w3.org/2000/svg" width="74" height="43" fill="none" viewBox="0 0 74 43" class="" platform="Soundcloud" aria-label="Soundcloud logo"><path fill="#fff" fill-rule="evenodd" d="M64.322 14.632a9 9 0 0 0-3.47.693C60.133 7.236 53.347.888 45.077.888c-2.028 0-3.998.395-5.746 1.072-.676.263-.858.535-.866 1.055V31.51c.008.552.437.98.973 1.03H64.33c4.955 0 8.978-3.974 8.978-8.937 0-4.956-4.023-8.97-8.987-8.97M36.637 2.991c.181 0 .354.05.502.14.28.173.479.486.487.833l.437 20.233-.437 7.338v-.008c-.008.544-.453.99-.99.99-.535 0-.98-.446-.989-.982l-.198-3.62-.206-3.718.404-20.126v-.1a.985.985 0 0 1 .99-.981m-2.565 1.896a.91.91 0 0 0-1.006-.009.95.95 0 0 0-.429.775v.174l-.346 18.361.346 7.454v.033a.935.935 0 0 0 .924.89.94.94 0 0 0 .651-.272.97.97 0 0 0 .28-.651l.042-.734.354-6.712-.387-18.543a1 1 0 0 0-.43-.766m-9.68 1.978c.403 0 .725.321.741.734l.52 16.597-.52 7.618a.75.75 0 0 1-.742.734.754.754 0 0 1-.742-.734l-.462-7.618.462-16.597a.75.75 0 0 1 .742-.734m-3.01.602a.68.68 0 0 0-.675.676l-.495 16.061.495 7.668a.677.677 0 0 0 .676.668c.363 0 .66-.297.676-.668v.008l.56-7.668-.56-16.06c-.017-.388-.314-.685-.676-.685M17.74 9.413a.626.626 0 0 1 .618-.61c.322 0 .594.272.619.602l.602 14.824-.602 7.75a.627.627 0 0 1-.619.61.627.627 0 0 1-.618-.61l-.536-7.742zm-2.301 2.169a.56.56 0 0 0-.553.544l-.569 12.062.57 7.792a.56.56 0 0 0 .552.544c.288 0 .536-.24.552-.544l.643-7.792-.643-12.062a.567.567 0 0 0-.552-.544m-5.854 4.196a.44.44 0 0 0-.43.42l-.642 7.99.643 7.734a.44.44 0 0 0 .429.42c.222 0 .404-.18.428-.42l.734-7.734-.734-7.997c-.024-.231-.206-.413-.428-.413m-3.247.636c.016-.215.173-.363.362-.363.19 0 .339.148.363.37l.775 7.776-.775 7.495c-.016.206-.173.354-.363.354s-.346-.156-.362-.363l-.685-7.494zm-2.517.923c-.156 0-.28.124-.305.297l-.717 6.555.717 6.414c.025.173.149.297.305.297.157 0 .28-.124.305-.297l.817-6.414-.817-6.555c-.024-.173-.148-.297-.305-.297M1.125 19.85c-.149 0-.272.116-.297.289l-.536 4.056.536 3.982c.025.165.14.28.297.28.148 0 .272-.115.288-.28l.635-3.99-.635-4.057c-.016-.165-.14-.28-.288-.28m11.377-3.554c.256 0 .47.206.487.479l.692 7.42-.692 7.792c-.017.28-.223.486-.487.486a.505.505 0 0 1-.494-.486l-.61-7.792.61-7.412a.5.5 0 0 1 .494-.487m14.924-9.07a.8.8 0 0 0-.8.8l-.42 16.177.42 7.544a.799.799 0 0 0 1.6-.008v.008l.478-7.552-.478-16.177a.804.804 0 0 0-.8-.791m2.193 1.386a.864.864 0 0 1 .866-.857c.47 0 .849.38.865.857l.437 15.583-.437 7.503v-.008a.87.87 0 0 1-.865.858.864.864 0 0 1-.866-.858l-.388-7.495zM65.016 40.72h.652c1.393 0 2.028-.816 2.028-2.028 0-1.36-.577-2.029-1.979-2.029h-.7zm-1.327-5.351h2.078c1.896 0 3.298.89 3.298 3.314 0 2.334-1.69 3.323-3.397 3.323h-1.979zm-4.362 5.442c.85 0 1.37-.652 1.37-1.715h.007v-3.727h1.328v3.71c0 1.921-1.006 3.034-2.696 3.034-1.608 0-2.688-1.08-2.688-3.017v-3.727h1.327v3.71c0 1.055.511 1.732 1.352 1.732m-8.385-2.12c0 1.18.446 2.103 1.517 2.103 1.072 0 1.51-.923 1.517-2.102 0-1.18-.445-2.103-1.517-2.103s-1.517.915-1.517 2.103m-1.368-.008c0-2.02 1.071-3.421 2.885-3.421 1.806 0 2.878 1.401 2.886 3.421 0 2.02-1.072 3.422-2.886 3.422s-2.885-1.402-2.885-3.422m-4.601-3.314H46.3v5.326h2.663v1.311h-3.99zm-2.391 1.93c-.231-.454-.61-.718-1.212-.718-.99 0-1.567.874-1.575 2.102 0 1.188.577 2.103 1.575 2.103.602 0 .948-.264 1.303-.85l1.12.668c-.453.94-1.252 1.501-2.456 1.501-1.74 0-2.903-1.327-2.903-3.422 0-2.02 1.22-3.421 2.952-3.421 1.245 0 2.012.602 2.424 1.467zm-9.367 3.42h.652c1.402 0 2.036-.815 2.036-2.027 0-1.36-.585-2.029-1.987-2.029h-.7zm-1.327-5.35h2.078c1.896 0 3.298.89 3.298 3.314 0 2.334-1.69 3.323-3.397 3.323h-1.979zm-3.008 3.661c-.005-.31-.01-.654-.01-.858h.009V35.36h1.31v6.637h-1.187l-2.44-3.628c-.165-.247-.38-.577-.47-.75 0 .11.003.34.007.593.004.31.01.654.01.858v2.927h-1.312V35.36h1.27l2.358 3.512.124.194c.134.206.276.426.338.556 0-.11-.003-.34-.007-.593m-8.428 1.78c.841 0 1.36-.65 1.36-1.714h.009v-3.727h1.327v3.71c0 1.921-1.006 3.034-2.696 3.034-1.608 0-2.688-1.08-2.688-3.017v-3.727h1.328v3.71c0 1.055.52 1.732 1.36 1.732m-8.393-2.118c0 1.179.445 2.102 1.517 2.102s1.517-.923 1.517-2.102c0-1.18-.445-2.103-1.517-2.103s-1.517.915-1.517 2.103m-1.369-.009c0-2.02 1.08-3.421 2.886-3.421 1.814 0 2.886 1.401 2.886 3.421s-1.072 3.422-2.886 3.422-2.886-1.402-2.886-3.422M6.13 37.15c0 .42.28.552 1.336.8 1.056.247 2.218.601 2.218 2.028 0 1.261-.791 2.119-2.605 2.119-1.105 0-2.078-.462-2.58-1.204l.955-.857c.462.536 1.064.758 1.699.758.783 0 1.154-.214 1.154-.717 0-.42-.222-.619-1.476-.899-1.22-.28-2.077-.668-2.077-1.979 0-1.203 1.063-1.946 2.374-1.946 1.03 0 1.79.396 2.416 1.048l-.956.931c-.43-.437-.9-.684-1.51-.684-.708 0-.947.305-.947.602" clip-rule="evenodd"></path></svg>