<svg xmlns="http://www.w3.org/2000/svg" width="101" height="31" fill="none" viewBox="0 0 101 31" class="" platform="Spotify" aria-label="Spotify logo"><path fill="#fff" fill-rule="evenodd" d="M99.067 15.164a1.6 1.6 0 0 1-1.152-.482 1.64 1.64 0 0 1-.475-1.167c0-.905.72-1.658 1.636-1.658a1.6 1.6 0 0 1 1.152.482 1.64 1.64 0 0 1 .475 1.166c0 .44-.173.861-.479 1.172-.307.311-.723.486-1.157.487m.01-3.143a1.44 1.44 0 0 0-1.044.435 1.48 1.48 0 0 0-.423 1.06c0 .82.627 1.482 1.457 1.482a1.44 1.44 0 0 0 1.042-.435 1.5 1.5 0 0 0 .424-1.058 1.48 1.48 0 0 0-.42-1.052 1.44 1.44 0 0 0-1.037-.432m.359 1.653.46.654h-.387l-.414-.599h-.357v.6h-.325v-1.731h.764c.395 0 .656.206.656.552a.514.514 0 0 1-.397.524m-.274-.78h-.424v.547h.424c.212 0 .337-.105.337-.274 0-.177-.127-.273-.337-.273M78.805 7.227c-.44 0-.862.177-1.173.492a1.69 1.69 0 0 0 0 2.374c.31.315.732.492 1.171.492s.862-.177 1.174-.492a1.7 1.7 0 0 0 .486-1.187 1.7 1.7 0 0 0-.486-1.188 1.65 1.65 0 0 0-1.174-.492zm1.143 4.651h-2.311a.17.17 0 0 0-.12.051.17.17 0 0 0-.049.121v10.216c0 .097.075.172.168.172h2.314a.17.17 0 0 0 .12-.05.17.17 0 0 0 .05-.122V12.05a.17.17 0 0 0-.05-.122.17.17 0 0 0-.12-.05zm5.142.01v-.322c0-.953.36-1.378 1.17-1.378.482 0 .868.096 1.304.244a.17.17 0 0 0 .205-.085.2.2 0 0 0 .017-.079V8.296a.17.17 0 0 0-.12-.164 6.3 6.3 0 0 0-1.924-.28c-2.135 0-3.264 1.219-3.264 3.522v.496h-1.112a.17.17 0 0 0-.12.05.17.17 0 0 0-.05.12v2.024c0 .095.077.172.17.172h1.112v8.033c0 .094.075.17.168.17h2.314a.17.17 0 0 0 .119-.05.17.17 0 0 0 .05-.122v-8.032h2.158l3.309 8.032c-.375.842-.744 1.011-1.248 1.011-.409 0-.838-.123-1.277-.367a.17.17 0 0 0-.133-.013.17.17 0 0 0-.1.094l-.784 1.74a.173.173 0 0 0 .071.222c.819.45 1.558.64 2.47.64 1.708 0 2.653-.804 3.484-2.972l4.013-10.5a.17.17 0 0 0-.078-.215.2.2 0 0 0-.08-.02h-2.406a.17.17 0 0 0-.16.117l-2.467 7.133-2.703-7.138a.17.17 0 0 0-.157-.111zm-8.867-.01H73.68V9.243a.17.17 0 0 0-.05-.121.17.17 0 0 0-.12-.05h-2.313a.17.17 0 0 0-.119.05.17.17 0 0 0-.05.12v2.636h-1.113a.17.17 0 0 0-.12.05.17.17 0 0 0-.048.122v2.012c0 .096.076.173.168.173h1.113v5.206c0 2.105 1.034 3.171 3.075 3.171.83 0 1.517-.172 2.166-.544a.17.17 0 0 0 .085-.15v-1.915a.17.17 0 0 0-.079-.148.17.17 0 0 0-.165-.007 2.9 2.9 0 0 1-1.358.332c-.743 0-1.073-.34-1.073-1.105v-4.84h2.544a.17.17 0 0 0 .17-.172V12.05a.17.17 0 0 0-.104-.159.2.2 0 0 0-.065-.013m-12.196-.214c-3.116 0-5.56 2.43-5.56 5.533 0 3.07 2.426 5.473 5.522 5.473 3.127 0 5.577-2.421 5.577-5.512 0-3.081-2.432-5.494-5.539-5.494m0 8.632c-1.658 0-2.91-1.35-2.91-3.14 0-1.794 1.209-3.097 2.872-3.097 1.67 0 2.925 1.35 2.925 3.14 0 1.794-1.213 3.096-2.887 3.096m-11.152-8.632c-1.303 0-2.372.52-3.252 1.584V12.05a.17.17 0 0 0-.05-.121.17.17 0 0 0-.119-.051h-2.313a.17.17 0 0 0-.12.051.17.17 0 0 0-.049.121v13.313c0 .093.076.17.169.17h2.313a.17.17 0 0 0 .119-.05.17.17 0 0 0 .05-.12v-4.201c.882 1 1.95 1.489 3.252 1.489 2.42 0 4.87-1.887 4.87-5.493s-2.448-5.494-4.87-5.494m2.182 5.494c0 1.835-1.118 3.118-2.717 3.118-1.582 0-2.775-1.34-2.775-3.118s1.193-3.118 2.775-3.118c1.574 0 2.718 1.31 2.718 3.118zm-13.413-2.914c-2.582-.624-3.041-1.062-3.041-1.981 0-.87.808-1.454 2.01-1.454 1.163 0 2.32.443 3.53 1.357a.17.17 0 0 0 .188.009.2.2 0 0 0 .05-.046l1.262-1.801a.174.174 0 0 0-.032-.232c-1.44-1.172-3.064-1.74-4.96-1.74-2.79 0-4.738 1.693-4.738 4.12 0 2.599 1.68 3.52 4.585 4.23 2.47.576 2.889 1.059 2.889 1.923 0 .957-.843 1.55-2.202 1.55-1.507 0-2.736-.514-4.113-1.719a.167.167 0 0 0-.24.02l-1.415 1.703a.17.17 0 0 0 .017.238 8.37 8.37 0 0 0 5.694 2.21c3.005 0 4.947-1.663 4.947-4.235 0-2.175-1.283-3.377-4.43-4.153zM15.86.352A14.87 14.87 0 0 0 5.28 4.79 15.24 15.24 0 0 0 .898 15.5c0 4.017 1.577 7.87 4.382 10.711a14.87 14.87 0 0 0 10.58 4.437c3.967 0 7.773-1.596 10.578-4.437A15.24 15.24 0 0 0 30.82 15.5c0-4.017-1.576-7.87-4.382-10.711A14.87 14.87 0 0 0 15.86.352M22.721 22.2a.94.94 0 0 1-.577.427.92.92 0 0 1-.706-.113c-3.513-2.173-7.933-2.664-13.142-1.46a.92.92 0 0 1-.967-.374.95.95 0 0 1 .552-1.466c5.698-1.32 10.587-.752 14.53 1.688a.953.953 0 0 1 .31 1.298m1.829-4.124a1.155 1.155 0 0 1-1.603.39c-4.02-2.504-10.151-3.228-14.908-1.767-.29.07-.594.025-.852-.125a1.18 1.18 0 0 1-.536-.682 1.2 1.2 0 0 1 .07-.87c.133-.27.362-.478.64-.583 5.435-1.67 12.188-.86 16.806 2.012a1.17 1.17 0 0 1 .525.733 1.2 1.2 0 0 1-.14.893zm.16-4.295c-4.823-2.9-12.78-3.167-17.382-1.75a1.38 1.38 0 0 1-1.504-.447 1.42 1.42 0 0 1-.313-1.046 1.43 1.43 0 0 1 .516-.961c.144-.118.31-.205.489-.257 5.283-1.626 14.069-1.31 19.619 2.025.32.192.55.504.642.868s.037.75-.152 1.074c-.19.323-.498.557-.858.65s-.74.037-1.06-.155" clip-rule="evenodd"></path></svg>