<svg xmlns="http://www.w3.org/2000/svg" width="125" height="24" fill="none" viewBox="0 0 125 24" class="" platform="YouTubeMediaConnect" aria-label="YouTubeMediaConnect logo"><path fill="#fff" d="M83.674 4.703h4.002l1.09 5.824c.457 2.42.96 6.043 1.111 7.533h.19c.19-1.623.617-5.138 1.091-7.551l1.129-5.806h3.984v15.729h-2.333V13.6c0-2.108.151-4.752.284-7.152h-.212l-.395 2.163-2.353 11.82h-2.58l-2.37-11.82-.37-2.163h-.21c.133 2.475.276 5.065.276 7.152v6.83h-2.334zM97.872 17.651V9h2.428v8.376c0 1.082.264 1.58.864 1.58.55 0 .929-.322 1.186-1.014V9h2.428v11.44h-2.039l-.152-1.565h-.171c-.361 1.261-1.034 1.793-2.2 1.793-1.596 0-2.344-.959-2.344-3.017M105.998 17.073l2.03-.038c-.077 1.251.379 2.03 1.224 2.03.673 0 1.109-.465 1.109-1.167 0-.845-.777-1.423-2.03-2.39-1.498-1.138-2.342-1.908-2.342-3.748 0-2.01 1.053-2.979 3.244-2.979 2.324 0 3.225 1.11 3.083 3.814l-2.021.095c-.029-1.698-.294-2.258-1.1-2.258-.722 0-1.101.38-1.101 1.101 0 1.015.55 1.46 1.404 2.087 2.042 1.518 2.955 2.19 2.955 4.04 0 2.021-1.12 3.03-3.34 3.03-2.391.006-3.435-1.207-3.115-3.617M113.514 6.193c0-1.101.341-1.49 1.317-1.49.95 0 1.3.395 1.3 1.49 0 1.138-.332 1.527-1.3 1.527s-1.317-.408-1.317-1.527m.131 2.798h2.353v11.44h-2.353zM117.439 15.5v-1.63c0-3.72.96-5.104 3.492-5.104 1.063 0 1.812.237 2.305.73.659.658.892 1.803.759 3.585l-2.096.132c-.011-2.172-.237-2.855-1.007-2.855-.824 0-1.023.673-1.023 3.169v2.258c0 2.599.189 3.244 1.005 3.244s1.091-.658 1.1-2.703l2.108.104c.047 1.764-.247 2.866-.94 3.5-.494.475-1.223.694-2.305.694-2.562 0-3.398-1.253-3.398-5.124M12.189 6.336a6.06 6.06 0 1 0 6.06 6.067 6.07 6.07 0 0 0-6.06-6.067m-2.23 9.47V8.997l5.892 3.405z" style="fill:#fff;fill-opacity:1"></path><path fill="#fff" d="M12.189.883a11.52 11.52 0 1 0-.003 23.04A11.52 11.52 0 0 0 12.19.884m0 18.516a6.996 6.996 0 1 1 4.945-2.051 7 7 0 0 1-4.945 2.048zM28.982 20.45v-4.894l-2.98-10.853h2.41l1.062 4.781c.257 1.176.527 2.874.637 3.378h.17c.131-.636.379-2.24.636-3.358l1.1-4.8h2.41L31.41 15.555v4.894zM40.819 14.249v.93c0 4.097-.883 5.445-3.53 5.445-2.674 0-3.527-1.31-3.527-5.445v-.93c0-4.042.957-5.483 3.584-5.483 2.572 0 3.473 1.404 3.473 5.483m-2.466-.892c0-2.296-.228-2.979-1.044-2.979-.835 0-1.081.702-1.081 2.979v2.678c0 2.304.228 2.997 1.043 2.997.863 0 1.082-.659 1.082-2.997zM42.105 17.651V9h2.428v8.376c0 1.082.255 1.58.862 1.58.551 0 .93-.322 1.186-1.014V9h2.43v11.44h-2.032l-.152-1.565h-.17c-.36 1.261-1.034 1.793-2.201 1.793-1.598 0-2.352-.959-2.352-3.017" style="fill:#fff;fill-opacity:1"></path><path fill="#fff" d="M51.044 20.432V6.752h-2.59V4.703h7.615v2.049h-2.597v13.68z" style="fill:#fff;fill-opacity:1"></path><path fill="#fff" d="M55.531 17.651V9h2.428v8.376c0 1.082.256 1.58.863 1.58.55 0 .93-.322 1.186-1.014V9h2.429v11.44h-2.04l-.152-1.565h-.17c-.361 1.261-1.034 1.793-2.201 1.793-1.593 0-2.343-.959-2.343-3.017M71.153 13.82v1.556c0 3.67-.749 5.235-2.467 5.235-1.034 0-1.83-.455-2.24-1.271h-.15l-.172 1.101h-2.095V4.125h2.333v3.243c0 .874.02 1.746-.066 2.884h.19c.502-.996 1.271-1.48 2.304-1.48 1.746 0 2.362 1.29 2.362 5.048m-2.485 0c0-2.647-.219-3.378-1.054-3.378-.58 0-1.063.527-1.253 1.357v6.455a1.22 1.22 0 0 0 1.138.711c.874 0 1.168-.9 1.168-3.452zM79.102 15.45h-4.336v.731c0 2.049.057 2.846.987 2.846.806 0 1.1-.527 1.138-1.977l2.125.106c.124 2.276-.996 3.462-3.272 3.462-2.419 0-3.396-1.404-3.396-4.874v-2.03c0-3.528.996-4.933 3.471-4.933 2.495 0 3.283 1.158 3.283 4.82zm-4.336-2.248v.977h1.917v-.977c0-2.153-.095-2.845-.968-2.845-.874 0-.949.711-.949 2.845" style="fill:#fff;fill-opacity:1"></path></svg>